<?xml version="1.0" encoding="utf-8"?>
<!-- Generator: Adobe Illustrator 28.3.0, SVG Export Plug-In . SVG Version: 6.00 Build 0)  -->
<svg version="1.1" id="Réteg_1" xmlns="http://www.w3.org/2000/svg" xmlns:xlink="http://www.w3.org/1999/xlink" x="0px" y="0px"
	 viewBox="0 0 595.28 595.28" style="enable-background:new 0 0 595.28 595.28;" xml:space="preserve">
<style type="text/css">
	.st0{fill:#FFFFFF;}
	.st1{fill:#1D1D1B;}
	.st2{fill:#28F0E6;}
</style>
<g>
	<path class="st2" d="M529.25,145.09c-8.98-12.76-23.91-18.15-38.14-14.72L87.4,227.54c-16.16,3.89-27.45,18.22-27.45,34.84
		l0,129.73c0,9.99,4.39,19.53,12.11,25.88c7.13,5.86,12.86,8.95,21.42,8.95l2.07-0.07l0.22-26.85c-7.37-1.12-9.19-5.03-9.19-8.93
		v-128.7c0-4.27,2.9-7.95,7.05-8.95l403.71-97.18c3.78-0.91,6.54,0.69,7.85,1.72c1.31,1.03,3.51,3.34,3.51,7.23v130.77
		c0,3.09-2.12,5.78-5.13,6.5l-9.34,2.24l-0.01,27.39l15.55-3.73c14.99-3.59,25.56-16.99,25.56-32.4V164.76
		C535.33,157.74,533.29,150.83,529.25,145.09z"/>
	<path class="st2" d="M224.58,370.37c-2.77,0.9-7.24,2.34-9.94,3.17c-21.76,6.68-47.67,14.62-76.47,44.04l0.58-75.07l-0.37,0
		c-0.04-6.33-0.09-12.65-0.12-18.98c0-0.33,0-0.66,0-1.25c0.26,0.34,0.36,0.46,0.45,0.58c8.32,11.59,16.66,23.17,24.95,34.79
		c0.53,0.74,0.99,0.77,1.75,0.59c8.5-1.98,17-3.93,25.51-5.88c2.12-0.49,4.23-0.98,6.43-1.49c-0.24-0.34-0.4-0.59-0.58-0.83
		c-10.58-13.9-21.17-27.8-31.77-41.68c-0.41-0.54-0.49-0.91-0.14-1.53c9.79-17.35,19.56-34.71,29.34-52.07
		c0.14-0.24,0.25-0.5,0.46-0.89c-0.48,0.09-0.75,0.14-1.01,0.2c-9.79,2.28-19.57,4.58-29.36,6.84c-0.73,0.17-1.14,0.52-1.49,1.17
		c-8.04,15.05-16.1,30.08-24.17,45.12c-0.1,0.19-0.24,0.35-0.36,0.53c-0.1-0.02-0.2-0.04-0.31-0.07c0-13.49,0-26.97,0-40.55
		c-0.4,0.08-0.57,0.11-0.75,0.15c-8.56,1.99-17.12,3.98-25.68,5.99c-1.4,0.33-1.32-0.04-1.31,1.65c0.19,31.62,0.38,63.25,0.56,94.87
		c0,0.3,0,0.59,0,0.94c0.15-0.02,0.28-0.03,0.4-0.04l-0.65,83.4l-0.35,45.79l25.2-35.89c33.56-47.79,60.87-56.17,87.28-64.27
		c3.98-1.22,8.08-2.48,12.1-3.85l23.28-6.55v-27.33l-28.43,6.99C227.92,369.35,226.25,369.83,224.58,370.37z"/>
	<path class="st2" d="M483.47,187.45c0-0.32,0-0.65,0-1.03c-0.35,0.06-0.56,0.09-0.77,0.13c-8.86,2.06-17.72,4.14-26.59,6.18
		c-0.81,0.19-0.89,0.61-0.88,1.3c0.22,17.91,0.43,35.81,0.62,53.72c0.02,1.59-0.03,3.21-0.27,4.78
		c-1.12,7.58-5.16,12.16-12.43,13.53c-5.34,1-8.77-1.04-10.13-6.3c-0.49-1.92-0.73-3.94-0.76-5.93
		c-0.26-18.03-0.44-36.06-0.65-54.09c0-0.38-0.05-0.76-0.07-1.2c-0.39,0.07-0.66,0.1-0.92,0.16c-8.68,2.02-17.36,4.06-26.05,6.06
		c-0.87,0.2-1.1,0.54-1.09,1.41c0.22,18.09,0.39,36.18,0.6,54.27c0.07,6.16,0.73,12.24,2.98,18.02c4.2,10.8,11.98,16.94,23.65,17.83
		c7.33,0.56,14.37-0.85,21.08-3.68c18.72-7.91,29.16-22.16,31.87-42.2c0.24-1.76,0.35-3.54,0.53-5.3c0-1.85,0-3.69,0-5.54
		c-0.05-0.64-0.12-1.28-0.13-1.92C483.87,220.92,483.67,204.18,483.47,187.45z"/>
	<path class="st2" d="M241.08,340.08c1.32-4.74,2.61-9.48,3.88-14.23c0.14-0.52,0.33-0.84,0.92-0.97
		c9.44-2.15,18.88-4.33,28.32-6.52c0.59-0.14,0.81,0,0.99,0.56c0.68,2.17,1.41,4.33,2.13,6.49c0.71,2.15,1.43,4.31,2.18,6.56
		c9.87-2.27,19.67-4.52,29.56-6.8c-0.87-2.35-1.7-4.59-2.53-6.83c-5.54-14.93-11.08-29.86-16.62-44.79
		c-4.66-12.57-9.32-25.14-13.96-37.72c-0.27-0.73-0.56-0.89-1.34-0.7c-10.11,2.39-20.23,4.74-30.35,7.08
		c-0.66,0.15-0.94,0.47-1.13,1.11c-4.8,15.94-9.63,31.88-14.45,47.82c-5.62,18.57-11.24,37.13-16.86,55.7
		c-0.06,0.21-0.07,0.44-0.12,0.74c9.62-2.22,19.14-4.41,28.65-6.63C240.64,340.87,240.98,340.42,241.08,340.08z M259.52,271.82
		c0.07-0.01,0.15-0.02,0.22-0.03c2.72,8.28,5.43,16.55,8.19,24.95c-5.38,1.25-10.66,2.47-16.15,3.74
		C254.4,290.79,256.96,281.3,259.52,271.82z"/>
	<path class="st2" d="M328.56,320.67c17.9-4.12,35.81-8.24,53.72-12.33c0.77-0.18,1.04-0.44,1.02-1.25
		c-0.11-7.1-0.16-14.21-0.24-21.32c0-0.29-0.04-0.58-0.06-0.93c-9.08,2.09-18.04,4.16-27.1,6.25c-0.25-24.99-0.5-49.82-0.75-74.7
		c-0.26,0.04-0.38,0.05-0.5,0.07c-8.95,2.09-17.89,4.19-26.85,6.25c-0.77,0.18-0.77,0.61-0.76,1.2c0.3,31.87,0.6,63.73,0.9,95.6
		c0,0.39,0,0.79,0,1.31C328.27,320.73,328.42,320.71,328.56,320.67z"/>
	<path class="st2" d="M292.58,371.99c-0.41,0.09-0.64,0.28-0.83,0.66c-1.3,2.6-3.42,4.09-6.27,4.5c-2.69,0.38-4.83-1.02-5.6-3.62
		c-0.43-1.45-0.45-2.94-0.27-4.43c0.41-3.41,2.83-7.14,7.26-7.85c1.98-0.31,3.7,0.15,4.85,1.93c0.18,0.28,0.36,0.24,0.61,0.18
		c2.1-0.52,4.21-1.03,6.31-1.54c0.15-0.04,0.29-0.09,0.46-0.14c-0.02-0.12-0.03-0.2-0.06-0.28c-1.18-3.61-3.62-5.8-7.38-6.4
		c-2.48-0.4-4.91-0.02-7.24,0.88c-6.2,2.4-10.02,6.84-11.35,13.39c-0.13,0.64-0.2,1.29-0.3,1.94c0.01,0.8,0.02,1.6,0.02,2.39
		c0.08,0.47,0.16,0.95,0.23,1.42c0.73,4.91,4.5,8.25,9.45,8.36c6.57,0.15,13.03-3.93,15.7-9.94c0.42-0.95,0.72-1.96,1.12-3.05
		c-0.31,0.06-0.46,0.08-0.6,0.12C296.66,371.01,294.62,371.52,292.58,371.99z"/>
	<path class="st2" d="M324.23,361.83c2.98-2.47,4.43-5.59,3.83-9.49c-0.31-2-1.31-3.56-3.21-4.43c-1.8-0.82-3.69-0.84-5.56-0.42
		c-3.92,0.88-7.82,1.87-11.73,2.8c-0.42,0.1-0.39,0.34-0.39,0.65c0.09,8.67,0.18,17.33,0.27,26c0,0.17,0,0.33,0.01,0.54
		c0.21-0.04,0.34-0.06,0.47-0.09c1.88-0.46,3.77-0.93,5.65-1.37c0.36-0.08,0.47-0.22,0.46-0.59c-0.05-2.89-0.07-5.79-0.1-8.68
		c-0.01-1.1-0.01-1.08,1.06-1.36c0.35-0.09,0.55-0.04,0.76,0.29c1.71,2.69,3.45,5.36,5.17,8.05c0.21,0.33,0.41,0.42,0.79,0.32
		c1.19-0.32,2.39-0.59,3.58-0.88c1.09-0.27,2.17-0.53,3.33-0.82c-2.13-3.1-4.21-6.13-6.3-9.17
		C322.99,362.7,323.65,362.31,324.23,361.83z M318.96,359.63c-1.62,0.58-3.33,0.92-5.08,1.38c-0.02-1.96-0.04-3.77-0.06-5.59
		c-0.01-1.17-0.01-1.17,1.13-1.44c1.06-0.26,2.12-0.52,3.18-0.76c0.28-0.07,0.58-0.1,0.87-0.11c1.46-0.06,2.32,0.68,2.5,2.12
		C321.75,357.2,320.83,358.96,318.96,359.63z"/>
	<path class="st2" d="M377.65,333.94c-0.13-0.31-0.28-0.37-0.59-0.29c-2.24,0.56-4.47,1.11-6.72,1.63
		c-0.37,0.09-0.54,0.27-0.65,0.62c-3.04,9.47-6.09,18.94-9.14,28.41c-0.05,0.16-0.08,0.32-0.13,0.51c0.1,0,0.15,0.01,0.2,0
		c2.12-0.51,4.24-1.02,6.36-1.56c0.16-0.04,0.34-0.27,0.39-0.45c0.45-1.43,0.89-2.87,1.31-4.32c0.1-0.34,0.26-0.5,0.61-0.59
		c3.03-0.72,6.06-1.47,9.09-2.2c0.16-0.04,0.33-0.06,0.53-0.1c0.49,1.31,1,2.58,1.45,3.87c0.15,0.44,0.35,0.49,0.76,0.38
		c1-0.27,2.02-0.5,3.03-0.75c1.11-0.27,2.21-0.54,3.35-0.82c-0.02-0.12-0.03-0.15-0.04-0.19
		C384.19,350.04,380.92,341.99,377.65,333.94z M370.51,352.51c1.07-3.6,2.11-7.08,3.15-10.56c0.04,0,0.08,0,0.12,0
		c1.12,2.96,2.24,5.91,3.38,8.94C374.96,351.43,372.8,351.95,370.51,352.51z"/>
	<path class="st2" d="M450.82,315.28c-0.18,0.04-0.37,0.29-0.43,0.49c-1.79,6.04-3.57,12.08-5.34,18.12
		c-0.33,1.13-0.67,2.25-1.01,3.37c-0.04,0-0.07,0.01-0.11,0.01c-2.28-6.21-4.56-12.42-6.84-18.66c-2.35,0.57-4.63,1.13-6.95,1.69
		c0.03,0.13,0.03,0.18,0.05,0.22c3.2,8.04,6.4,16.09,9.59,24.13c0.14,0.36,0.32,0.4,0.67,0.31c2.4-0.6,4.81-1.19,7.22-1.76
		c0.39-0.09,0.58-0.26,0.7-0.64c2.67-8.48,5.34-16.96,8.02-25.44c0.36-1.13,0.71-2.26,1.08-3.44c-0.14,0.01-0.21,0.01-0.27,0.03
		C455.06,314.24,452.93,314.74,450.82,315.28z"/>
	<path class="st2" d="M353.05,361.62c-3.3,0.8-6.56,1.59-9.9,2.4c0-0.24,0-0.41-0.01-0.57c-0.02-1.61-0.01-3.22-0.06-4.84
		c-0.01-0.45,0.15-0.59,0.55-0.68c2.6-0.61,5.19-1.26,7.78-1.87c0.37-0.09,0.5-0.24,0.49-0.63c-0.04-1.37-0.04-2.74-0.05-4.11
		c0-0.15-0.03-0.29-0.05-0.48c-2.93,0.71-5.82,1.41-8.77,2.13c0-0.25,0-0.43-0.01-0.6c-0.01-1.4,0-2.81-0.06-4.21
		c-0.02-0.54,0.14-0.74,0.66-0.86c2.95-0.69,5.89-1.43,8.83-2.12c0.4-0.09,0.48-0.26,0.47-0.63c-0.03-1.4-0.04-2.81-0.05-4.21
		c0-0.16-0.02-0.33-0.03-0.53c-0.17,0.03-0.29,0.05-0.41,0.08c-5.2,1.26-10.4,2.54-15.61,3.79c-0.4,0.1-0.51,0.26-0.5,0.67
		c0.1,8.67,0.19,17.33,0.28,26c0,0.17,0,0.33,0,0.48c0.1,0.02,0.13,0.04,0.16,0.04c5.35-1.3,10.7-2.6,16.06-3.89
		c0.29-0.07,0.33-0.23,0.33-0.49c-0.02-1.49-0.03-2.98-0.05-4.47C353.11,361.9,353.07,361.78,353.05,361.62z"/>
	<path class="st2" d="M470.83,332.27c0-0.28-0.01-0.47-0.01-0.66c-0.02-1.56-0.01-3.12-0.06-4.68c-0.01-0.46,0.11-0.66,0.58-0.77
		c2.48-0.58,4.95-1.19,7.43-1.8c0.81-0.2,0.81-0.2,0.8-1.03c-0.01-1.4-0.03-2.8-0.04-4.25c-2.96,0.72-5.86,1.42-8.81,2.14
		c-0.02-1.66-0.01-3.22-0.06-4.77c-0.02-0.54,0.11-0.77,0.68-0.9c2.97-0.69,5.92-1.42,8.88-2.16c0.15-0.04,0.38-0.23,0.39-0.35
		c0.01-1.64-0.02-3.29-0.03-4.99c-0.22,0.04-0.39,0.07-0.55,0.11c-5.15,1.25-10.31,2.51-15.46,3.75c-0.44,0.1-0.52,0.3-0.52,0.71
		c0.1,8.65,0.19,17.3,0.28,25.96c0,0.17,0,0.34,0.01,0.58c5.57-1.36,11.03-2.69,16.49-4.02c-0.02-1.77-0.04-3.5-0.05-5.28
		C477.45,330.66,474.17,331.46,470.83,332.27z"/>
	<path class="st2" d="M409.84,325.29c-0.14,0.01-0.21,0.01-0.27,0.02c-6.75,1.64-13.5,3.29-20.25,4.92
		c-0.31,0.08-0.37,0.22-0.36,0.51c0.03,1.51,0.04,3.02,0.05,4.52c0,0.1,0.03,0.19,0.04,0.33c2.38-0.58,4.72-1.14,7.12-1.72
		c0.08,7.3,0.15,14.53,0.23,21.82c2.06-0.5,4.02-0.99,6-1.44c0.46-0.11,0.59-0.3,0.58-0.76c-0.09-6.88-0.15-13.76-0.24-20.64
		c-0.01-0.45,0.12-0.62,0.56-0.72c2.02-0.46,4.04-0.98,6.06-1.44c0.42-0.1,0.55-0.26,0.53-0.7c-0.04-1.16-0.04-2.32-0.05-3.48
		C409.85,326.09,409.84,325.7,409.84,325.29z"/>
	<path class="st2" d="M423.55,321.93c-0.24,0.04-0.39,0.06-0.54,0.1c-1.82,0.44-3.63,0.91-5.46,1.31c-0.5,0.11-0.6,0.32-0.6,0.8
		c0.1,8.58,0.19,17.16,0.28,25.75c0,0.21,0,0.41,0.01,0.68c0.19-0.03,0.31-0.05,0.42-0.08c1.87-0.45,3.73-0.92,5.61-1.35
		c0.44-0.1,0.56-0.28,0.56-0.73c-0.1-8.63-0.19-17.27-0.28-25.9C423.56,322.34,423.56,322.16,423.55,321.93z"/>
</g>
</svg>
